# xmcd
#
# Track frame offsets:
#	150
#	19937
#	31685
#
# Disc length: 701 seconds
#
# Revision: 1
# Processed by: cddbd v1.4PL0 Copyright (c) Steve Scherf et al.
# Submitted via: CDmax 1.8
#
DISCID=1702bb03
DTITLE=Jaguar Wright - Sampler
DYEAR=2001
DGENRE=R and B Soul
TTITLE0=The What Ifs
TTITLE1=Stay
TTITLE2=Same Sh*T, Different Day
EXTD=
EXTT0=
EXTT1=
EXTT2=
PLAYORDER=
